<svg width="172" height="247" viewBox="0 0 172 247" fill="none" xmlns="http://www.w3.org/2000/svg">
<path fill-rule="evenodd" clip-rule="evenodd" d="M87.2858 107.35C98.3228 106.465 106.286 97.7334 105.657 86.7197C105.075 76.3813 96.1573 67.7427 84.9108 68.4412C74.6655 69.0932 66.0502 77.9414 66.7487 89.1181C67.4007 99.2236 76.2721 108.212 87.2858 107.35Z" fill="white"/>
<path fill-rule="evenodd" clip-rule="evenodd" d="M87.8448 54.7266C95.9479 53.7253 102.817 46.8796 101.746 37.426C100.861 29.5325 93.6194 22.5238 84.4685 23.6414C76.412 24.6194 69.7293 31.6048 70.6607 40.8954C71.4291 48.7657 78.8569 55.8442 87.8448 54.7266Z" fill="#FF0000"/>
<path fill-rule="evenodd" clip-rule="evenodd" d="M88.7064 152.033C96.4369 150.729 103.259 143.511 101.629 133.988C100.302 126.327 93.0374 119.644 83.6303 121.181C75.9464 122.462 69.2637 129.796 70.7772 139.157C71.988 146.771 79.3925 153.617 88.7064 152.033Z" fill="#009933"/>
<path fill-rule="evenodd" clip-rule="evenodd" d="M136.534 103.461C144.52 102.53 151.529 95.5211 150.481 86.2072C149.573 78.1274 142.238 71.2817 133.227 72.3528C125.148 73.3307 118.372 80.386 119.373 89.6533C120.234 97.5236 127.499 104.509 136.534 103.461Z" fill="#4848D7"/>
<path fill-rule="evenodd" clip-rule="evenodd" d="M39.9948 103.275C54.0354 100.597 57.5747 83.879 47.0035 75.4965C44.1162 73.2146 39.4592 71.6546 34.7091 72.4928C27.0717 73.8433 20.7383 81.1547 22.0422 90.2125C23.1599 97.943 30.8206 105.022 39.9948 103.275Z" fill="#FFCC00"/>
<path fill-rule="evenodd" clip-rule="evenodd" d="M75.5272 114.592C62.4645 108.677 60.8811 100.318 59.4375 98.6416C58.8554 99.3169 58.2267 100.691 57.6911 101.482C52.8013 108.77 44.9078 112.543 35.5474 112.193C36.3158 114.499 39.1099 118.736 40.3673 120.459C42.5794 123.486 43.7669 124.93 46.4446 127.585C49.1456 130.309 50.3565 131.333 53.4533 133.592C55.223 134.919 59.6005 137.783 61.929 138.528C61.6495 132.707 63.0699 127.491 65.6545 123.58C70.2183 116.687 74.7821 115.5 75.5272 114.592Z" fill="white"/>
<path fill-rule="evenodd" clip-rule="evenodd" d="M136.859 112.193C127.452 112.589 119.652 108.724 114.785 101.575C114.273 100.83 113.505 99.1772 112.946 98.6416C111.339 100.993 111.572 103.066 106.519 108.165C102.91 111.821 101.327 112.333 96.856 114.615C97.3915 115.081 99.0214 115.896 99.6734 116.315C102.281 117.991 104.889 120.692 106.682 123.44C109.406 127.654 110.804 132.544 110.478 138.528C114.855 137.248 122.679 130.891 125.962 127.608C128.174 125.396 129.99 123.347 131.946 120.576C133.11 118.969 136.277 114.219 136.859 112.193Z" fill="white"/>
<path fill-rule="evenodd" clip-rule="evenodd" d="M75.5271 61.0601C66.3296 56.6826 61.5097 47.6015 61.9288 37.2864C57.8074 38.4273 49.4482 45.0402 46.4212 48.2069C43.8365 50.9079 42.7189 52.0489 40.437 55.2622C39.3892 56.7524 35.9896 61.8052 35.5938 63.6214C43.5571 63.2489 50.9151 66.0896 55.6186 71.6779C56.3637 72.5627 56.9226 73.1914 57.6211 74.216C58.2265 75.1008 58.8552 76.4979 59.4373 77.1731C60.3687 76.1253 60.8111 72.7257 65.9338 67.5798C67.3308 66.1827 68.5649 65.1116 70.3811 63.9241C71.8946 62.9229 75.2477 61.3861 75.5271 61.0601Z" fill="white"/>
<path fill-rule="evenodd" clip-rule="evenodd" d="M135.124 63.6796L137.22 63.7029C134.309 57.3927 130.421 52.4563 126.439 48.4048C124.344 46.2393 122.038 44.2601 119.337 42.3042C117.638 41.0934 113.12 38.0431 110.838 37.3911C111.49 49.406 104.738 57.4626 97.2168 61.2114C97.5894 61.4908 100.756 62.9345 102.409 64.0056C106.531 66.7764 109.604 70.2226 111.979 74.5768C112.492 75.4849 112.701 76.4396 113.307 77.2779C114.424 76.1136 115.658 71.9457 121.526 67.9174C125.112 65.4725 129.676 63.7261 135.124 63.6796Z" fill="white"/>
<path fill-rule="evenodd" clip-rule="evenodd" d="M87.1935 14.2809C90.8958 13.8385 94.0392 10.6951 93.5503 6.36413C93.1544 2.75499 89.8247 -0.458302 85.6335 0.0539624C81.9545 0.496372 78.9042 3.70967 79.3233 7.94749C79.6726 11.5566 83.0721 14.7932 87.1935 14.2809Z" fill="#FF0000"/>
<path fill-rule="evenodd" clip-rule="evenodd" d="M165.593 97.0348C169.295 96.5924 172.439 93.449 171.95 89.118C171.554 85.5089 168.224 82.2956 164.033 82.8079C160.354 83.2503 157.304 86.4636 157.723 90.7014C158.072 94.3105 161.472 97.5471 165.593 97.0348Z" fill="#4848D7"/>
<path fill-rule="evenodd" clip-rule="evenodd" d="M86.3313 174.573C90.0336 174.107 93.177 170.964 92.688 166.656C92.2922 163.024 88.9625 159.834 84.7712 160.323C81.0922 160.789 78.0187 163.979 78.4378 168.24C78.8103 171.849 82.2099 175.085 86.3313 174.573Z" fill="#009933"/>
<path fill-rule="evenodd" clip-rule="evenodd" d="M7.93189 97.0348C11.6342 96.5924 14.7776 93.449 14.2886 89.118C13.8928 85.5089 10.5631 82.2956 6.37182 82.8079C2.69283 83.2503 -0.380756 86.4636 0.0383693 90.7014C0.410925 94.3105 3.8105 97.5471 7.93189 97.0348Z" fill="#FFCC00"/>
<path fill-rule="evenodd" clip-rule="evenodd" d="M1 207.911H18.842C19.6276 207.911 20.4753 207.932 21.3643 207.994C22.2533 208.056 23.1836 208.18 24.114 208.387C25.0443 208.615 25.9746 208.925 26.8843 209.34C27.794 209.754 28.6623 210.292 29.4893 210.975C30.7504 212.072 31.7221 213.356 32.4044 214.867C33.0866 216.379 33.4174 217.973 33.4174 219.671C33.4174 221.431 33.066 223.066 32.3424 224.598C31.6394 226.13 30.5644 227.435 29.1792 228.511C28.2695 229.195 27.3598 229.733 26.4502 230.106C25.5405 230.478 24.6308 230.768 23.7625 230.975C22.8735 231.161 22.0465 231.286 21.2816 231.306C20.5166 231.348 19.8137 231.369 19.2141 231.369H13.0738V246.048H1V207.911ZM13.0738 230.395L17.5395 223.812C18.6559 223.812 19.5863 223.501 20.3305 222.88C21.0955 222.238 21.4676 221.348 21.4676 220.209C21.4676 218.801 20.9508 217.807 19.9377 217.248C18.904 216.669 17.7462 216.379 16.4024 216.379H13.0738V230.395ZM58.7849 246.048H46.6077V207.973H58.7849V246.048ZM112.414 243.232C111.587 243.563 110.574 243.936 109.396 244.391C108.197 244.847 106.894 245.261 105.426 245.634C103.979 246.006 102.387 246.337 100.671 246.607C98.9345 246.876 97.1359 247 95.2338 247C91.7192 247 88.5767 246.524 85.8477 245.551C83.1393 244.578 80.8238 243.232 78.9424 241.472C77.061 239.733 75.6138 237.663 74.6215 235.261C73.6498 232.839 73.1536 230.188 73.1536 227.269C73.1536 224.64 73.6291 222.114 74.6008 219.671C75.5725 217.228 77.0404 215.075 78.9838 213.19C80.9478 211.327 83.3874 209.816 86.3232 208.698C89.2382 207.559 92.6702 207 96.5776 207C97.0325 207 97.7147 207.021 98.6244 207.041C99.5134 207.083 100.526 207.166 101.664 207.311C102.801 207.455 104.041 207.642 105.385 207.89C106.729 208.118 108.093 208.449 109.499 208.884V218.905C108.962 218.553 108.259 218.139 107.432 217.642C106.584 217.166 105.53 216.71 104.269 216.317C103.235 216.006 102.222 215.778 101.25 215.654C100.299 215.53 99.3894 215.468 98.5624 215.468C96.5156 215.468 94.6963 215.758 93.0837 216.379C91.4504 216.979 90.0859 217.807 88.9488 218.863C87.8324 219.899 86.9641 221.141 86.3645 222.569C85.7856 224.019 85.4755 225.551 85.4755 227.166C85.4755 228.677 85.7236 230.147 86.1784 231.555C86.6539 232.983 87.3569 234.246 88.3286 235.323C89.3003 236.42 90.4994 237.311 91.9466 237.973C93.3731 238.636 95.0684 238.967 97.0118 238.967C97.9835 238.967 98.7898 238.905 99.4721 238.76C100.154 238.615 100.754 238.47 101.25 238.325V232.238H92.9596L97.3219 224.205H112.414V243.232ZM169 226.731C169 229.319 168.545 231.824 167.677 234.246C166.788 236.689 165.485 238.843 163.749 240.727C161.991 242.611 159.821 244.122 157.236 245.282C154.631 246.441 151.592 247 148.16 247C144.666 247 141.586 246.503 138.919 245.468C136.252 244.453 133.998 243.046 132.158 241.244C130.339 239.443 128.954 237.311 128.023 234.867C127.072 232.424 126.618 229.774 126.618 226.896C126.618 224.019 127.114 221.369 128.085 218.946C129.078 216.503 130.484 214.412 132.324 212.631C134.143 210.851 136.397 209.464 139.022 208.47C141.668 207.497 144.625 207 147.933 207C151.385 207 154.425 207.538 157.03 208.615C159.655 209.692 161.867 211.141 163.625 212.963C165.403 214.764 166.746 216.876 167.656 219.257C168.545 221.658 169 224.143 169 226.731ZM147.829 237.952C149.297 237.952 150.579 237.621 151.654 236.979C152.729 236.337 153.618 235.489 154.321 234.453C155.024 233.439 155.52 232.259 155.851 230.975C156.182 229.671 156.347 228.366 156.347 227.083C156.347 225.571 156.161 224.143 155.83 222.776C155.479 221.431 154.983 220.251 154.301 219.215C153.618 218.201 152.729 217.373 151.675 216.772C150.62 216.193 149.38 215.903 147.933 215.903C146.651 215.903 145.473 216.151 144.418 216.669C143.343 217.186 142.433 217.932 141.668 218.905C140.883 219.857 140.304 220.996 139.89 222.362C139.477 223.708 139.27 225.24 139.27 226.917C139.27 230.375 140.056 233.087 141.606 235.033C143.178 236.979 145.245 237.952 147.829 237.952Z" fill="white"/>
</svg>
