<svg width="156" height="206" viewBox="0 0 156 206" fill="none" xmlns="http://www.w3.org/2000/svg">
<path fill-rule="evenodd" clip-rule="evenodd" d="M78.766 96.8712C88.7257 96.0727 95.9117 88.1933 95.3444 78.2547C94.8191 68.9254 86.7716 61.13 76.6228 61.7603C67.3776 62.3487 59.6032 70.3332 60.2336 80.4189C60.8219 89.538 68.8274 97.6486 78.766 96.8712Z" fill="black"/>
<path fill-rule="evenodd" clip-rule="evenodd" d="M79.2703 49.3846C86.5824 48.4811 92.7809 42.3036 91.8143 33.7728C91.0159 26.6498 84.4812 20.3252 76.2235 21.3338C68.9534 22.2163 62.923 28.5199 63.7635 36.9036C64.4569 44.0056 71.1597 50.3932 79.2703 49.3846Z" fill="#FF0000"/>
<path fill-rule="evenodd" clip-rule="evenodd" d="M80.0478 137.193C87.0237 136.017 93.1802 129.503 91.7094 120.909C90.5117 113.996 83.956 107.966 75.4672 109.353C68.5333 110.508 62.5029 117.127 63.8687 125.574C64.9613 132.445 71.6431 138.622 80.0478 137.193Z" fill="#009933"/>
<path fill-rule="evenodd" clip-rule="evenodd" d="M123.206 93.3623C130.413 92.5218 136.738 86.1973 135.792 77.7925C134.973 70.5014 128.354 64.3239 120.222 65.2905C112.931 66.173 106.817 72.5395 107.72 80.9023C108.498 88.0043 115.053 94.3078 123.206 93.3623Z" fill="#000066"/>
<path fill-rule="evenodd" clip-rule="evenodd" d="M36.091 93.1939C48.7612 90.7775 51.955 75.691 42.4156 68.1267C39.8101 66.0676 35.6077 64.6598 31.3213 65.4162C24.4294 66.6349 18.7142 73.2326 19.8909 81.4062C20.8994 88.3822 27.8124 94.7698 36.091 93.1939Z" fill="#FFCC00"/>
<path fill-rule="evenodd" clip-rule="evenodd" d="M68.155 103.406C56.3673 98.0688 54.9385 90.5255 53.6358 89.0127C53.1105 89.622 52.5432 90.8617 52.0599 91.5761C47.6474 98.1529 40.5244 101.557 32.0776 101.242C32.771 103.322 35.2925 107.146 36.4271 108.701C38.4232 111.432 39.4948 112.735 41.9112 115.13C44.3486 117.589 45.4412 118.513 48.2358 120.551C49.8327 121.749 53.7829 124.334 55.8841 125.006C55.6319 119.753 56.9137 115.046 59.246 111.516C63.3643 105.297 67.4826 104.225 68.155 103.406Z" fill="black"/>
<path fill-rule="evenodd" clip-rule="evenodd" d="M123.5 101.242C115.012 101.599 107.973 98.1108 103.581 91.6602C103.119 90.9878 102.425 89.496 101.921 89.0127C100.471 91.1349 100.681 93.0049 96.1219 97.6065C92.8651 100.905 91.4363 101.368 87.402 103.427C87.8853 103.847 89.3561 104.582 89.9444 104.961C92.2977 106.474 94.6511 108.911 96.269 111.39C98.7274 115.193 99.9881 119.606 99.6939 125.006C103.644 123.85 110.704 118.114 113.667 115.151C115.663 113.155 117.302 111.306 119.067 108.806C120.117 107.356 122.975 103.07 123.5 101.242Z" fill="black"/>
<path fill-rule="evenodd" clip-rule="evenodd" d="M68.1551 55.0996C59.8554 51.1494 55.506 42.9547 55.8842 33.6465C52.1651 34.6761 44.6218 40.6434 41.8903 43.501C39.5579 45.9384 38.5494 46.968 36.4902 49.8676C35.5447 51.2124 32.477 55.772 32.1198 57.4109C39.3058 57.0747 45.9456 59.6382 50.1899 64.681C50.8623 65.4795 51.3666 66.0468 51.997 66.9713C52.5433 67.7697 53.1106 69.0305 53.6359 69.6398C54.4764 68.6943 54.8756 65.6265 59.4982 60.9829C60.7589 59.7222 61.8725 58.7557 63.5115 57.6841C64.8772 56.7805 67.9029 55.3938 68.1551 55.0996Z" fill="black"/>
<path fill-rule="evenodd" clip-rule="evenodd" d="M121.935 57.4636L123.826 57.4846C121.2 51.7904 117.691 47.3359 114.098 43.6798C112.206 41.7257 110.126 39.9397 107.689 38.1747C106.155 37.0821 102.079 34.3295 100.02 33.7412C100.608 44.5833 94.5145 51.8534 87.7277 55.2363C88.0639 55.4885 90.9215 56.7912 92.4133 57.7578C96.1324 60.2582 98.906 63.3679 101.049 67.2972C101.511 68.1166 101.701 68.9781 102.247 69.7345C103.255 68.6839 104.369 64.9228 109.664 61.2878C112.9 59.0815 117.018 57.5056 121.935 57.4636Z" fill="black"/>
<path fill-rule="evenodd" clip-rule="evenodd" d="M78.682 12.8869C82.0229 12.4877 84.8595 9.65111 84.4183 5.74291C84.0611 2.48607 81.0564 -0.413566 77.2742 0.048695C73.9544 0.44792 71.2018 3.34756 71.58 7.17172C71.8952 10.4286 74.9629 13.3492 78.682 12.8869Z" fill="#FF0000"/>
<path fill-rule="evenodd" clip-rule="evenodd" d="M149.429 87.5627C152.77 87.1635 155.606 84.3269 155.165 80.4187C154.808 77.1619 151.803 74.2622 148.021 74.7245C144.701 75.1237 141.949 78.0233 142.327 81.8475C142.642 85.1043 145.71 88.025 149.429 87.5627Z" fill="#000066"/>
<path fill-rule="evenodd" clip-rule="evenodd" d="M77.9046 157.533C81.2455 157.113 84.0821 154.276 83.6408 150.389C83.2836 147.111 80.2789 144.233 76.4968 144.674C73.1769 145.094 70.4034 147.973 70.7816 151.818C71.1178 155.075 74.1855 157.995 77.9046 157.533Z" fill="#009933"/>
<path fill-rule="evenodd" clip-rule="evenodd" d="M7.15764 87.5627C10.4985 87.1635 13.3351 84.3269 12.8939 80.4187C12.5367 77.1619 9.53198 74.2622 5.74985 74.7245C2.42998 75.1237 -0.343589 78.0233 0.034624 81.8475C0.370814 85.1043 3.43854 88.025 7.15764 87.5627Z" fill="#FFCC00"/>
<path fill-rule="evenodd" clip-rule="evenodd" d="M8 173.752H22.9745C23.6339 173.752 24.3453 173.769 25.0914 173.82C25.8376 173.871 26.6184 173.974 27.3992 174.144C28.18 174.332 28.9609 174.589 29.7243 174.93C30.4878 175.272 31.2166 175.716 31.9107 176.28C32.9691 177.185 33.7846 178.244 34.3572 179.491C34.9299 180.738 35.2075 182.053 35.2075 183.453C35.2075 184.905 34.9125 186.255 34.3052 187.519C33.7152 188.783 32.8129 189.859 31.6504 190.747C30.8869 191.311 30.1234 191.755 29.36 192.062C28.5965 192.37 27.833 192.609 27.1042 192.78C26.3581 192.933 25.664 193.036 25.022 193.053C24.38 193.087 23.7901 193.104 23.2869 193.104H18.1334V205.214H8V173.752ZM18.1334 192.301L21.8814 186.87C22.8184 186.87 23.5992 186.613 24.2238 186.101C24.8659 185.571 25.1782 184.837 25.1782 183.898C25.1782 182.736 24.7444 181.916 23.8942 181.455C23.0266 180.977 22.0549 180.738 20.927 180.738H18.1334V192.301ZM56.498 205.214H46.2779V173.803H56.498V205.214ZM101.508 202.891C100.814 203.165 99.9641 203.472 98.975 203.848C97.9686 204.224 96.8755 204.565 95.6435 204.873C94.4289 205.18 93.0928 205.453 91.6526 205.675C90.1951 205.898 88.6854 206 87.0891 206C84.1393 206 81.5018 205.607 79.2114 204.804C76.9383 204.002 74.9949 202.891 73.4159 201.439C71.8369 200.005 70.6223 198.297 69.7894 196.315C68.9739 194.317 68.5575 192.13 68.5575 189.722C68.5575 187.553 68.9566 185.469 69.7721 183.453C70.5876 181.438 71.8196 179.661 73.4507 178.107C75.0991 176.57 77.1466 175.323 79.6105 174.401C82.0571 173.461 84.9375 173 88.2169 173C88.5987 173 89.1713 173.017 89.9348 173.034C90.6809 173.068 91.5311 173.137 92.4855 173.256C93.4398 173.376 94.4809 173.53 95.6088 173.734C96.7366 173.922 97.8819 174.196 99.0618 174.554V182.821C98.6106 182.531 98.0207 182.189 97.3266 181.78C96.6152 181.387 95.7302 181.011 94.6718 180.686C93.8042 180.43 92.954 180.242 92.1384 180.14C91.3403 180.037 90.5768 179.986 89.8827 179.986C88.1649 179.986 86.638 180.225 85.2845 180.738C83.9137 181.233 82.7685 181.916 81.8142 182.787C80.8772 183.641 80.1484 184.666 79.6452 185.845C79.1594 187.04 78.8991 188.304 78.8991 189.637C78.8991 190.884 79.1073 192.096 79.489 193.258C79.8881 194.436 80.4781 195.478 81.2936 196.366C82.1092 197.272 83.1155 198.006 84.3302 198.553C85.5274 199.099 86.9503 199.373 88.5813 199.373C89.3969 199.373 90.0736 199.321 90.6462 199.202C91.2188 199.082 91.722 198.963 92.1384 198.843V193.821H85.1804L88.8416 187.194H101.508V202.891ZM149 189.278C149 191.413 148.618 193.48 147.889 195.478C147.143 197.494 146.05 199.27 144.593 200.825C143.118 202.379 141.296 203.626 139.127 204.582C136.941 205.539 134.39 206 131.509 206C128.577 206 125.992 205.59 123.753 204.736C121.515 203.899 119.624 202.738 118.079 201.252C116.552 199.766 115.39 198.006 114.609 195.991C113.811 193.975 113.429 191.789 113.429 189.415C113.429 187.04 113.845 184.854 114.661 182.856C115.494 180.84 116.674 179.115 118.218 177.646C119.745 176.177 121.636 175.033 123.84 174.213C126.061 173.41 128.542 173 131.319 173C134.216 173 136.767 173.444 138.953 174.332C141.157 175.22 143.014 176.416 144.489 177.919C145.981 179.405 147.109 181.148 147.872 183.112C148.618 185.093 149 187.143 149 189.278ZM131.232 198.536C132.464 198.536 133.54 198.262 134.442 197.733C135.344 197.203 136.09 196.503 136.68 195.649C137.27 194.812 137.687 193.839 137.964 192.78C138.242 191.703 138.381 190.627 138.381 189.568C138.381 188.321 138.225 187.143 137.947 186.016C137.652 184.905 137.236 183.932 136.663 183.078C136.09 182.241 135.344 181.557 134.459 181.062C133.574 180.584 132.533 180.345 131.319 180.345C130.243 180.345 129.254 180.55 128.369 180.977C127.467 181.404 126.703 182.019 126.061 182.821C125.402 183.607 124.916 184.547 124.569 185.674C124.222 186.784 124.048 188.048 124.048 189.432C124.048 192.284 124.708 194.522 126.009 196.127C127.328 197.733 129.063 198.536 131.232 198.536Z" fill="black"/>
</svg>
